<?xml version="1.0" encoding="UTF-8"?>
<!DOCTYPE svg PUBLIC "-//W3C//DTD SVG 1.1//EN" "http://www.w3.org/Graphics/SVG/1.1/DTD/svg11.dtd">
<svg xmlns="http://www.w3.org/2000/svg" xmlns:xlink="http://www.w3.org/1999/xlink" version="1.1" width="75px" height="80px" viewBox="-0.5 -0.5 75 80"><defs><style type="text/css">@import url(https://fonts.googleapis.com/css2?family=Architects+Daughter:wght@400;500);&#xa;</style></defs><g><g><path d="M 10.89 20.88 C 10.89 21.61 10.29 22.21 9.56 22.21 C 8.83 22.21 8.23 21.61 8.23 20.88 C 8.23 20.53 8.37 20.19 8.62 19.94 C 8.87 19.69 9.21 19.55 9.56 19.55 C 9.91 19.55 10.25 19.69 10.5 19.94 C 10.75 20.19 10.89 20.53 10.89 20.88 Z M 4.31 39.11 C 4.3 40.3 3.34 41.26 2.16 41.26 C 0.97 41.26 0 40.3 0 39.11 C 0 37.92 0.97 36.95 2.16 36.95 C 3.34 36.95 4.31 37.92 4.31 39.11 Z M 9.16 58.34 C 9.16 59.12 8.85 59.87 8.29 60.43 C 7.74 60.98 6.99 61.29 6.21 61.29 C 5.43 61.29 4.68 60.98 4.13 60.43 C 3.57 59.87 3.26 59.12 3.26 58.34 C 3.26 56.71 4.58 55.39 6.21 55.39 C 7.84 55.39 9.16 56.71 9.16 58.34 Z M 23.96 71.97 C 23.96 74.01 22.31 75.67 20.27 75.67 C 18.23 75.67 16.57 74.01 16.57 71.97 C 16.57 69.93 18.23 68.27 20.27 68.27 C 22.31 68.28 23.96 69.93 23.96 71.97 Z M 44.02 75.52 C 44.02 78 42.02 80 39.54 80 C 37.08 80 35.07 77.99 35.07 75.52 C 35.07 73.05 37.07 71.04 39.54 71.04 C 42.02 71.04 44.02 73.05 44.02 75.52 Z M 62.87 67.57 C 62.87 70.51 60.49 72.9 57.55 72.9 C 56.14 72.9 54.79 72.34 53.79 71.34 C 52.79 70.34 52.23 68.98 52.23 67.57 C 52.23 66.16 52.79 64.81 53.79 63.81 C 54.79 62.81 56.14 62.25 57.55 62.25 C 58.96 62.25 60.32 62.81 61.31 63.81 C 62.31 64.81 62.87 66.16 62.87 67.57 Z M 74.18 51.05 C 74.18 54.45 71.43 57.21 68.03 57.21 C 66.4 57.21 64.84 56.56 63.68 55.4 C 62.53 54.25 61.88 52.68 61.88 51.05 C 61.88 49.42 62.53 47.85 63.68 46.69 C 64.84 45.54 66.4 44.89 68.03 44.89 C 69.66 44.89 71.23 45.54 72.38 46.7 C 73.54 47.85 74.18 49.42 74.18 51.05 Z M 74.4 31.38 C 74.4 35.2 71.3 38.31 67.47 38.31 C 65.64 38.31 63.88 37.58 62.58 36.28 C 61.28 34.98 60.55 33.21 60.55 31.38 C 60.55 29.54 61.28 27.77 62.58 26.47 C 63.88 25.17 65.64 24.44 67.47 24.44 C 71.3 24.44 74.4 27.55 74.4 31.38 Z M 63.8 15.44 C 63.8 19.72 60.33 23.19 56.05 23.19 C 51.77 23.19 48.3 19.72 48.3 15.44 C 48.31 11.16 51.77 7.69 56.05 7.69 C 60.33 7.69 63.79 11.16 63.8 15.44 Z M 46.24 8.55 C 46.24 13.26 42.42 17.09 37.71 17.09 C 32.99 17.08 29.18 13.26 29.17 8.55 C 29.17 3.83 32.99 0 37.71 0 C 39.97 0 42.14 0.9 43.74 2.5 C 45.34 4.11 46.24 6.28 46.24 8.55 Z" fill="#3b8df1" stroke="none" pointer-events="all"/></g></g></svg>